{"title":"50 Cent Ft. Kidd Kidd - Everytime I Come Around [Explicit] 720p ","uid":10086670,"size":54438964,"categoryP":"video","categoryS":"music_videos","magnet":"?xt=urn:btih:5690f83924b4ad5a009e9e6c0f598fbb38dbb31a&amp;dn=50+Cent+Ft.+Kidd+Kidd+-+Everytime+I+Come+Around+%5BExplicit%5D+720p+&amp;tr=udp%3A%2F%2Ftracker.openbittorrent.com%3A80&amp;tr=udp%3A%2F%2Fopen.demonii.com%3A1337&amp;tr=udp%3A%2F%2Ftracker.coppersurfer.tk%3A6969&amp;tr=udp%3A%2F%2Fexodus.desync.com%3A6969","seeders":0,"leechers":1,"uploader":"Sbyky","files":1,"time":1399113473,"description":"\n\nGeneral\nComplete name                            : 50 Cent Ft. Kidd Kidd - Everytime I Come Around [Explicit] 720p [Sbyky].mp4\nFormat                                   : MPEG-4\nFormat profile                           : Base Media\nCodec ID                                 : isom\nFile size                                : 51.9 MiB\nDuration                                 : 3mn 8s\nOverall bit rate mode                    : Variable\nOverall bit rate                         : 2 316 Kbps\nEncoded date                             : UTC 2014-04-24 17:00:37\nTagged date                              : UTC 2014-04-24 17:00:37\n\nVideo\nID                                       : 1\nFormat                                   : AVC\nFormat/Info                              : Advanced Video Codec\nFormat profile                           : &lt;a class=&quot;__cf_email__&quot; href=&quot;/cdn-cgi/l/email-protection&quot; data-cfemail=&quot;4d002c24230d017e637c&quot;&gt;[email&amp;#160;protected]&lt;/a&gt;&lt;script cf-hash='f9e31' type=&quot;text/javascript&quot;&gt;\n/* &lt;![CDATA[ */!function(){try{var t=&quot;currentScript&quot;in document?document.currentScript:function(){for(var t=document.getElementsByTagName(&quot;script&quot;),e=t.length;e--;)if(t[e].getAttribute(&quot;cf-hash&quot;))return t[e]}();if(t&amp;&amp;t.previousSibling){var e,r,n,i,c=t.previousSibling,a=c.getAttribute(&quot;data-cfemail&quot;);if(a){for(e=&quot;&quot;,r=parseInt(a.substr(0,2),16),n=2;a.length-n;n+=2)i=parseInt(a.substr(n,2),16)^r,e+=String.fromCharCode(i);e=document.createTextNode(e),c.parentNode.replaceChild(e,c)}}}catch(u){}}();/* ]]&gt; */&lt;/script&gt;\nFormat settings, CABAC                   : Yes\nFormat settings, ReFrames                : 3 frames\nCodec ID                                 : avc1\nCodec ID/Info                            : Advanced Video Coding\nDuration                                 : 3mn 8s\nBit rate                                 : 2 186 Kbps\nWidth                                    : 1 280 pixels\nHeight                                   : 720 pixels\nDisplay aspect ratio                     : 16:9\nFrame rate mode                          : Variable\nFrame rate                               : 23.976 fps\nMinimum frame rate                       : 23.974 fps\nMaximum frame rate                       : 24.671 fps\nColor space                              : YUV\nChroma subsampling                       : 4:2:0\nBit depth                                : 8 bits\nScan type                                : Progressive\nBits/(Pixel*Frame)                       : 0.099\nStream size                              : 49.0 MiB (94%)\nEncoded date                             : UTC 2014-04-24 17:00:37\nTagged date                              : UTC 2014-04-24 17:00:37\n\nAudio\nID                                       : 2\nFormat                                   : AAC\nFormat/Info                              : Advanced Audio Codec\nFormat profile                           : LC\nCodec ID                                 : 40\nDuration                                 : 3mn 8s\nBit rate mode                            : Variable\nBit rate                                 : 126 Kbps\nChannel(s)                               : 2 channels\nChannel positions                        : Front: L R\nSampling rate                            : 44.1 KHz\nCompression mode                         : Lossy\nStream size                              : 2.82 MiB (5%)\nEncoded date                             : UTC 2014-04-24 17:00:44\nTagged date                              : UTC 2014-04-24 17:00:44\n\nShared By Sbyky\n","torrent":{"xt":"urn:btih:5690f83924b4ad5a009e9e6c0f598fbb38dbb31a","amp;dn":"50+Cent+Ft.+Kidd+Kidd+-+Everytime+I+Come+Around+%5BExplicit%5D+720p+","amp;tr":["udp%3A%2F%2Ftracker.openbittorrent.com%3A80","udp%3A%2F%2Fopen.demonii.com%3A1337","udp%3A%2F%2Ftracker.coppersurfer.tk%3A6969","udp%3A%2F%2Fexodus.desync.com%3A6969"],"infoHash":"5690f83924b4ad5a009e9e6c0f598fbb38dbb31a","infoHashBuffer":{"type":"Buffer","data":[86,144,248,57,36,180,173,90,0,158,158,108,15,89,143,187,56,219,179,26]},"announce":[],"urlList":[]}}